<svg id="visual" viewBox="0 0 960 540" width="960" height="540" xmlns="http://www.w3.org/2000/svg" xmlns:xlink="http://www.w3.org/1999/xlink" version="1.1"><rect x="0" y="0" width="960" height="540" fill="#0a0a0a"></rect><defs><linearGradient id="grad1_0" x1="43.8%" y1="0%" x2="100%" y2="100%"><stop offset="14.444444444444446%" stop-color="#0a0a0a" stop-opacity="1"></stop><stop offset="85.55555555555554%" stop-color="#0a0a0a" stop-opacity="1"></stop></linearGradient></defs><defs><linearGradient id="grad2_0" x1="0%" y1="0%" x2="56.3%" y2="100%"><stop offset="14.444444444444446%" stop-color="#0a0a0a" stop-opacity="1"></stop><stop offset="85.55555555555554%" stop-color="#0a0a0a" stop-opacity="1"></stop></linearGradient></defs><g transform="translate(960, 0)"><path d="M0 432C-43.6 420.4 -87.1 408.7 -127.9 393.7C-168.7 378.7 -206.7 360.4 -245.7 338.2C-284.7 315.9 -324.6 289.8 -349.5 253.9C-374.4 218.1 -384.4 172.5 -395.6 128.6C-406.9 84.6 -419.4 42.3 -432 0L0 0Z" fill="#000000"></path></g><g transform="translate(0, 540)"><path d="M0 -432C42.2 -418 84.5 -403.9 127.3 -391.8C170.1 -379.8 213.5 -369.7 252.7 -347.9C292 -326.1 327 -292.7 349.5 -253.9C372 -215.2 382.1 -171.1 393.7 -127.9C405.4 -84.7 418.7 -42.4 432 0L0 0Z" fill="#000000"></path></g></svg>