<svg id="visual" width="960" height="540" xmlns="http://www.w3.org/2000/svg" version="1.1"><path fill="#0a0a0a" d="M0 0h960v540H0z"/><defs><linearGradient id="grad1_0" x1="43.8%" y1="0%" x2="100%" y2="100%"><stop offset="14.444%" stop-color="#0a0a0a"/><stop offset="85.556%" stop-color="#0a0a0a"/></linearGradient></defs><defs><linearGradient id="grad2_0" x1="0%" y1="0%" x2="56.3%" y2="100%"><stop offset="14.444%" stop-color="#0a0a0a"/><stop offset="85.556%" stop-color="#0a0a0a"/></linearGradient></defs><path d="M0 432c-43.6-11.6-87.1-23.3-127.9-38.3-40.8-15-78.8-33.3-117.8-55.5-39-22.3-78.9-48.4-103.8-84.3-24.9-35.8-34.9-81.4-46.1-125.3-11.3-44-23.8-86.3-36.4-128.6H0Z" transform="translate(960)"/><path d="M0-432c42.2 14 84.5 28.1 127.3 40.2 42.8 12 86.2 22.1 125.4 43.9 39.3 21.8 74.3 55.2 96.8 94 22.5 38.7 32.6 82.8 44.2 126C405.4-84.7 418.7-42.4 432 0H0Z" transform="translate(0 540)"/></svg>